<svg viewBox="0 0 420 440" xmlns="http://www.w3.org/2000/svg" font-family="Inter, 'Segoe UI', system-ui, sans-serif">
  <defs>
    <marker id="ah" markerWidth="9" markerHeight="9" refX="6" refY="3" orient="auto">
      <path d="M0,0 L6,3 L0,6 Z" fill="#6c7a89"/>
    </marker>
  </defs>

  <!-- Fuentes oficiales -->
  <rect x="8"   y="14" width="128" height="46" rx="8" fill="#eef3f5" stroke="#cdd8dd"/>
  <text x="72"  y="34" text-anchor="middle" font-size="12" font-weight="600" fill="#1f2933">REM 2025</text>
  <text x="72"  y="49" text-anchor="middle" font-size="10.5" fill="#6c7a89">DEIS-MINSAL</text>

  <rect x="146" y="14" width="128" height="46" rx="8" fill="#eef3f5" stroke="#cdd8dd"/>
  <text x="210" y="34" text-anchor="middle" font-size="12" font-weight="600" fill="#1f2933">Establecimientos</text>
  <text x="210" y="49" text-anchor="middle" font-size="10.5" fill="#6c7a89">base maestra DEIS</text>

  <rect x="284" y="14" width="128" height="46" rx="8" fill="#eef3f5" stroke="#cdd8dd"/>
  <text x="348" y="34" text-anchor="middle" font-size="12" font-weight="600" fill="#1f2933">Pobreza comunal</text>
  <text x="348" y="49" text-anchor="middle" font-size="10.5" fill="#6c7a89">CASEN-SAE</text>

  <line x1="72"  y1="60" x2="100" y2="90" stroke="#6c7a89" stroke-width="1.4" marker-end="url(#ah)"/>
  <line x1="210" y1="60" x2="210" y2="90" stroke="#6c7a89" stroke-width="1.4" marker-end="url(#ah)"/>
  <line x1="348" y1="60" x2="320" y2="90" stroke="#6c7a89" stroke-width="1.4" marker-end="url(#ah)"/>

  <!-- Pipeline -->
  <rect x="70"  y="92" width="280" height="40" rx="8" fill="#0f6e8c"/>
  <text x="210" y="116" text-anchor="middle" font-size="12.5" font-weight="600" fill="#ffffff">Limpieza y crosswalk A19b</text>
  <line x1="210" y1="132" x2="210" y2="158" stroke="#6c7a89" stroke-width="1.4" marker-end="url(#ah)"/>

  <rect x="40"  y="160" width="340" height="50" rx="8" fill="#0f6e8c"/>
  <text x="210" y="180" text-anchor="middle" font-size="12.5" font-weight="600" fill="#ffffff">Modelos</text>
  <text x="210" y="197" text-anchor="middle" font-size="10.5" fill="#d7e8ee">hurdle · multinivel · espacial · tipologias</text>
  <line x1="210" y1="210" x2="210" y2="236" stroke="#6c7a89" stroke-width="1.4" marker-end="url(#ah)"/>

  <rect x="110" y="238" width="200" height="40" rx="8" fill="#2a9d8f"/>
  <text x="210" y="262" text-anchor="middle" font-size="12.5" font-weight="600" fill="#ffffff">productos/ (tablas)</text>
  <line x1="210" y1="278" x2="210" y2="304" stroke="#6c7a89" stroke-width="1.4" marker-end="url(#ah)"/>

  <rect x="80"  y="306" width="260" height="44" rx="8" fill="#1f2933"/>
  <text x="210" y="325" text-anchor="middle" font-size="12.5" font-weight="600" fill="#ffffff">Dashboard Quarto</text>
  <text x="210" y="341" text-anchor="middle" font-size="10.5" fill="#aeb9c2">publicado en GitHub Pages</text>

  <!-- GitHub Actions -->
  <rect x="100" y="384" width="220" height="40" rx="8" fill="#ffffff" stroke="#e09f3e" stroke-width="1.6"/>
  <text x="210" y="403" text-anchor="middle" font-size="12" font-weight="600" fill="#1f2933">GitHub Actions</text>
  <text x="210" y="417" text-anchor="middle" font-size="10.5" fill="#b07d1f">reconstruye todo cada mes</text>
  <line x1="210" y1="384" x2="210" y2="352" stroke="#e09f3e" stroke-width="1.4" stroke-dasharray="4 3" marker-end="url(#ah)"/>
</svg>
